<svg width="64" height="64" viewBox="0 0 64 64" fill="none" xmlns="http://www.w3.org/2000/svg">
<circle cx="32" cy="32" r="32" fill="#EF6D58"/>
<path fill-rule="evenodd" clip-rule="evenodd" d="M23 23C21.6002 22.9999 20.3864 23.9678 20.075 25.3325L32 32.621L43.925 25.3325C43.6136 23.9678 42.3998 22.9999 41 23H23ZM20 37.7019V27.0459L28.7045 32.3649L20 37.7019ZM30.1415 33.2447L20.2865 39.2852C20.7835 40.3332 21.8401 41.0008 23 40.9997H41C42.1597 40.9999 43.2157 40.3318 43.712 39.2837L33.857 33.2432L32 34.3787L30.1415 33.2432V33.2447ZM44 37.7019L35.2955 32.3664V32.3649L44 27.0459V37.7019Z" fill="white"/>
</svg>
