<svg width="48" height="48" viewBox="0 0 48 48" fill="none" xmlns="http://www.w3.org/2000/svg">
<circle cx="24" cy="24" r="24" fill="#EF6D58"/>
<path fill-rule="evenodd" clip-rule="evenodd" d="M24 16C21.8267 16 21.556 16.0093 20.7013 16.0493C17.7947 16.1827 16.1813 17.7947 16.048 20.7013C16.0093 21.556 16 21.828 16 24C16 26.1733 16.0093 26.4453 16.048 27.2987C16.1813 30.204 17.7947 31.8187 20.7013 31.952C21.556 31.9907 21.8267 32 24 32C26.1733 32 26.4453 31.9907 27.3 31.952C30.2013 31.8187 31.8213 30.2067 31.952 27.2987C31.9907 26.4453 32 26.1733 32 24C32 21.828 31.9907 21.556 31.952 20.7013C31.8213 17.7987 30.2067 16.1813 27.3 16.0493C26.4453 16.0093 26.1733 16 24 16ZM24 17.4424C26.136 17.4424 26.3893 17.4504 27.2333 17.489C29.4027 17.5877 30.4133 18.6157 30.5133 20.7677C30.5507 21.6117 30.5587 21.8637 30.5587 23.9997C30.5587 26.1357 30.5507 26.389 30.5133 27.2317C30.4133 29.3824 29.404 30.413 27.2333 30.5117C26.3893 30.549 26.1373 30.5584 24 30.5584C21.864 30.5584 21.6107 30.5504 20.768 30.5117C18.5947 30.4117 17.588 29.3797 17.488 27.2317C17.4507 26.389 17.4413 26.1357 17.4413 23.9997C17.4413 21.8637 17.4507 21.6104 17.488 20.7677C17.5867 18.6144 18.5973 17.5864 20.768 17.4877C21.6107 17.449 21.864 17.4424 24 17.4424ZM19.892 23.9996C19.892 21.7303 21.732 19.8916 24 19.8916C26.268 19.8916 28.108 21.7316 28.108 23.9996C28.108 26.2689 26.268 28.1076 24 28.1076C21.732 28.1076 19.892 26.2689 19.892 23.9996ZM24 26.6663C22.5266 26.6663 21.3333 25.473 21.3333 23.9997C21.3333 22.5277 22.5266 21.333 24 21.333C25.472 21.333 26.668 22.5263 26.668 23.9997C26.668 25.473 25.472 26.6663 24 26.6663ZM27.3093 19.7307C27.3093 19.2 27.74 18.7707 28.2693 18.7707C28.8013 18.7707 29.2307 19.2 29.2307 19.7307C29.2307 20.2613 28.8 20.6907 28.2693 20.6907C27.7387 20.6907 27.3093 20.26 27.3093 19.7307Z" fill="white"/>
</svg>
